<svg xmlns="http://www.w3.org/2000/svg"
     viewBox="0 0 495 307"
     style="height:60px; width:auto; display:block;">
<path fill="#70D800" d="M222.745285,239.754761 C246.537872,216.038010 270.079498,192.571945 293.621124,169.105896 C293.421875,168.717636 293.222626,168.329376 293.023376,167.941116 C284.604736,167.941116 276.183289,168.057663 267.769531,167.854858 C265.795441,167.807281 263.285004,167.251068 261.974579,165.960739 C249.271790,153.452545 236.770050,140.740097 224.224396,128.072617 C223.805557,127.649712 223.529282,127.085609 222.575073,125.698280 C225.200150,125.698280 226.938568,125.698280 228.677002,125.698280 C263.002350,125.698357 297.328217,125.776215 331.652100,125.552551 C334.432434,125.534431 337.732452,124.063713 339.869354,122.207161 C345.571930,117.252769 350.771851,111.719826 356.171539,106.416824 C355.959534,105.989998 355.747528,105.563179 355.535522,105.136353 C353.787567,105.136353 352.039581,105.136353 350.291595,105.136353 C302.302765,105.136360 254.313843,105.101982 206.325241,105.205635 C202.724503,105.213409 200.096313,104.278511 197.523666,101.681541 C185.107071,89.147591 172.499832,76.802490 159.012894,63.452721 C259.357056,63.452721 358.293274,63.452721 456.393646,63.452721 C387.390411,132.292953 317.910614,201.608643 248.779785,270.576172 C240.184494,262.019440 230.456482,252.335052 220.455856,242.379318 C220.817825,241.957809 221.656067,240.981628 222.745285,239.754761 Z"/>
<path fill="#FDFDFD" d="M130.154877,93.845566 C159.887604,123.726234 189.369247,153.357986 218.434036,182.570740 C208.674072,192.375626 198.863022,202.231827 189.483292,211.654724 C140.371140,162.594177 90.702187,112.977386 40.639870,62.967648 C43.530575,62.967648 46.271526,62.967667 49.012474,62.967644 C64.507103,62.967514 80.003265,62.862083 95.494614,63.087418 C97.671600,63.119083 100.334152,64.241531 101.905914,65.757172 C111.378670,74.891678 120.598999,84.287964 130.154877,93.845566 Z"/>
<path fill="#6FD401" d="M128.945892,58.444138 C128.946121,59.977589 128.946121,61.082783 128.946121,63.141567 C122.710358,57.057999 117.160370,51.687561 111.692055,46.235203 C111.187492,45.732128 111.009048,44.707996 111.006310,43.924664 C110.964531,31.952517 110.977226,19.980181 110.977226,7.517497 C113.155807,7.419791 114.932854,7.270594 116.709915,7.270365 C205.036148,7.258996 293.362427,7.299698 381.688416,7.154734 C386.563965,7.146732 387.960419,8.542521 387.744537,13.316285 C387.368500,21.631964 387.526855,29.979160 387.695557,38.308399 C387.760590,41.518925 386.778961,42.833031 383.437988,42.656193 C379.130524,42.428192 374.801880,42.600662 369.529968,42.600662 C369.529968,38.201607 369.346680,34.114761 369.585327,30.052706 C369.793457,26.509773 368.830505,25.052996 364.915039,25.058144 C287.588043,25.159840 210.260910,25.133030 132.933792,25.144915 C131.800659,25.145090 130.667557,25.304541 128.945648,25.433884 C128.945648,36.462723 128.945648,47.239300 128.945892,58.444138 Z"/>
<path fill="#6FD401" d="M381.840363,284.091797 C343.763153,284.091766 306.164185,284.091766 268.565186,284.091766 C268.341461,283.733246 268.117706,283.374756 267.893951,283.016235 C273.370117,277.604309 278.732269,272.067047 284.422394,266.890259 C285.510010,265.900757 287.890289,266.140625 289.674774,266.137451 C313.997772,266.094482 338.320862,266.108521 362.643951,266.108551 C364.617828,266.108551 366.591705,266.108582 369.139618,266.108582 C369.285767,263.827606 369.512573,261.919586 369.514465,260.011353 C369.538452,235.521713 369.598755,211.031601 369.458771,186.542725 C369.436951,182.732498 370.530487,179.952499 373.325317,177.360962 C377.823456,173.190018 381.978821,168.649399 387.143768,163.383209 C387.143768,204.225449 387.143768,243.813232 387.143768,283.841370 C385.526123,283.925354 383.922363,284.008606 381.840363,284.091797 Z"/>
<path fill="#70D601" d="M110.963837,179.010071 C110.963821,174.022583 110.963821,169.532761 110.963821,163.385651 C115.888924,168.283279 119.690781,172.538086 123.994522,176.203598 C127.905197,179.534332 129.113144,183.278595 129.056808,188.364395 C128.792969,212.186005 128.939636,236.012146 128.939651,259.836670 C128.939667,261.650757 128.939651,263.464844 128.939651,266.114624 C131.194458,266.114624 133.108521,266.114624 135.022583,266.114624 C159.680130,266.114685 184.338043,266.177765 208.994843,266.042603 C212.447266,266.023682 214.905930,267.011505 217.290237,269.495850 C221.649994,274.038574 226.364777,278.240601 230.931503,282.584686 C230.710999,282.944305 230.490494,283.303894 230.269974,283.663513 C190.783432,283.663513 151.296875,283.663513 110.963860,283.663513 C110.963860,248.981216 110.963860,214.244476 110.963837,179.010071 Z"/>

</svg>
